<svg viewBox="0 0 1024 1024" version="1.1" xmlns="http://www.w3.org/2000/svg">
  <g transform="translate(256, 256) scale(0.5)">
    <path d="M866.188387 908.387097H350.686968l-220.07742-0.412903c-0.644129-0.016516-1.271742-0.049548-1.899354-0.115613a106.446452 106.446452 0 0 1-67.980388-33.957162A104.712258 104.712258 0 0 1 33.032258 802.931613v-548.830968C33.032258 195.963871 80.747355 148.645161 139.396129 148.645161h726.792258c58.632258 0 106.363871 47.31871 106.363871 105.455484v234.991484l-0.033032 0.858839c-0.033032 0.512-2.064516 53.892129 16.268387 89.038451 4.954839 9.51329 1.205677 21.190194-8.373678 26.095484a19.621161 19.621161 0 0 1-26.326709-8.291097c-22.379355-42.908903-20.859871-101.739355-20.628645-108.098064V254.100645c0-36.781419-30.174968-66.725161-67.270194-66.725161H139.379613c-37.095226 0-67.28671 29.943742-67.28671 66.725161v548.830968a66.659097 66.659097 0 0 0 59.623226 66.295742l219.003871 0.412903h515.468387c37.095226 0 67.28671-29.91071 67.28671-66.708645l-0.412903-97.610323c-0.099097-1.816774-1.651613-20.380903-20.529549-44.279742l-0.165161-0.198193-22.808774-29.696-123.193807-161.626839c-0.429419-0.578065-40.96-52.983742-90.657032-47.434322-40.282839 4.492387-79.805935 47.054452-114.308129 123.078193-18.514581 40.794839-36.418065 71.134968-54.734452 92.787613-18.498065 21.867355-37.491613 34.931613-58.054193 39.919484-45.634065 11.098839-85.173677-19.786323-127.042065-52.488258l-5.301677-4.129032c-48.920774-38.135742-72.258065-29.415226-166.383484 62.084129a19.654194 19.654194 0 0 1-27.614968-0.264258 19.257806 19.257806 0 0 1 0.264258-27.400259c49.036387-47.665548 81.490581-75.776 112.540904-87.816258 35.047226-13.60929 67.550968-6.523871 105.323354 22.924387l5.351226 4.162065c35.658323 27.846194 66.444387 51.893677 93.563871 45.287226 26.92129-6.540387 55.989677-43.866839 86.461936-110.988387 41.125161-90.607484 90.178065-139.643871 145.837419-145.705291 71.944258-7.828645 123.821419 59.804903 125.985032 62.695226l123.078194 161.49471 22.693161 29.530839c27.614968 35.014194 28.738065 64.21471 28.754581 67.435354v0.132129l0.412903 98.00671c0 58.235871-47.698581 105.554581-106.363871 105.554581z m-568.32-464.268387c-44.477935 0-80.664774-35.889548-80.664774-79.987613s36.186839-79.987613 80.664774-79.987613c44.461419 0 80.648258 35.873032 80.648258 79.971097 0 44.098065-36.170323 79.987613-80.648258 79.987613z m0-121.228387c-22.940903 0-41.587613 18.498065-41.587613 41.224258 0 22.74271 18.663226 41.240774 41.587613 41.240774 22.940903 0 41.587613-18.498065 41.587613-41.240774 0-22.726194-18.663226-41.224258-41.587613-41.224258z" fill="#84848478" opacity="1"></path>
  </g>
</svg>