<svg t="1731397945088" class="icon" viewBox="0 0 1024 1024" version="1.1" xmlns="http://www.w3.org/2000/svg" p-id="1477" width="200" height="200"><path d="M861.653333 605.738667c0 143.445333-193.28 274.090667-423.509333 274.090666-211.2 0-395.434667-103.765333-395.434667-259.712 0-83.072 50.346667-174.378667 138.24-259.754666C301.738667 243.2 446.72 188.288 516.181333 255.914667c21.248 20.565333 30.848 47.872 30.677334 79.274666 84.266667-24.576 155.733333-17.237333 191.274666 32.085334 19.157333 26.581333 22.698667 58.88 13.909334 94.165333 64.469333 26.026667 109.568 75.52 109.568 144.298667z m-189.44-88.32c-16.469333-17.493333-17.066667-39.253333-8.448-60.16 8.874667-21.674667 9.088-34.645333 5.12-40.106667-11.264-15.701333-65.408-15.488-136.277333 13.269333a89.642667 89.642667 0 0 1-21.717333 5.973334c-14.677333 1.962667-28.629333 0.042667-41.941334-11.306667-17.877333-15.317333-20.181333-36.48-13.738666-56.149333 9.130667-28.586667 7.68-45.909333 1.578666-51.84-7.936-7.68-33.152-8.149333-70.784 6.101333C340.394667 340.48 288 375.424 240.341333 421.546667c-72.832 70.784-112.298667 142.378667-112.298666 198.528 0 95.658667 139.776 174.378667 310.101333 174.378666 188.586667 0 338.176-101.12 338.176-188.757333 0-31.488-27.178667-57.088-71.381333-70.485333-16.810667-4.821333-22.869333-7.296-32.725334-17.792z m300.970667-68.992a42.666667 42.666667 0 1 1-82.602667-21.418667 170.666667 170.666667 0 0 0-200.234666-210.090667 42.666667 42.666667 0 0 1-17.365334-83.541333 256 256 0 0 1 300.202667 315.050667z" p-id="1478"></path></svg>