<?xml version="1.0" standalone="no"?><!DOCTYPE svg PUBLIC "-//W3C//DTD SVG 1.1//EN" "http://www.w3.org/Graphics/SVG/1.1/DTD/svg11.dtd"><svg t="1777010419040" class="icon" viewBox="0 0 1024 1024" version="1.1" xmlns="http://www.w3.org/2000/svg" p-id="7966" xmlns:xlink="http://www.w3.org/1999/xlink" width="200" height="200"><path d="M557.5 198.1L121.1 439.6c-52.4 29-84.9 84.2-84.9 144.1 0 62.3 36.2 120.4 92.5 148l348.6 165.7c7.7 3.7 16 5.5 24.3 5.5 10 0 19.9-2.6 28.7-7.9l457.6-269.3V378.8L557.5 198.1z m3.4 63.9L897 403.1 504.4 634.8l-317.2-166L560.9 262z m-59 583.2L153.6 679.7c-36.4-17.8-59.9-55.6-59.9-96.1 0-31 13.5-59.8 36.1-79.9l347.9 182.1c8.3 4.3 17.3 6.5 26.3 6.5 9.9 0 19.8-2.6 28.7-7.9l397.5-234.1v142.3L501.9 845.2z" fill="" p-id="7968"></path><path d="M507.7 347.3L713 444.9l56.6-42.6-196.1-92.5z" fill="" p-id="7969"></path></svg>