<?xml version="1.0" standalone="no"?><!DOCTYPE svg PUBLIC "-//W3C//DTD SVG 1.1//EN" "http://www.w3.org/Graphics/SVG/1.1/DTD/svg11.dtd"><svg t="1761097261072" class="icon" viewBox="0 0 1024 1024" version="1.1" xmlns="http://www.w3.org/2000/svg" p-id="42118" xmlns:xlink="http://www.w3.org/1999/xlink" width="200" height="200"><path d="M948.960062 600.234467H74.948063c-10.733605 0-21.11413-4.342873-28.564099-12.075306a38.979932 38.979932 0 0 1-11.051376-28.775946c4.801876-125.34308 53.668023-233.385284 145.292049-321.231363C272.354586 150.411696 383.78635 105.923729 511.883446 105.923729c128.097097 0 239.52886 44.487966 331.294118 132.228123 91.694642 87.810772 140.596097 195.888284 145.397973 321.231363 0.423695 10.662989-3.601407 21.11413-11.051376 28.775946a39.686091 39.686091 0 0 1-28.599407 12.075306zM118.094328 521.568444h787.719468c-11.722226-87.810772-50.455003-162.310461-117.787187-226.782705-77.465554-74.146611-167.818495-110.195986-276.107855-110.195987-108.324667 0-198.606993 36.014068-276.17847 110.195987-67.261568 64.472243-105.994345 138.971933-117.645956 226.782705z" p-id="42119"></path><path d="M525.5123 163.722778a39.368319 39.368319 0 0 1-39.438936-39.36832V39.368319c0-21.749672 17.653955-39.368319 39.438936-39.368319S564.915927 17.618647 564.915927 39.368319V124.283842c0 21.749672-17.653955 39.438935-39.403627 39.438936zM422.342587 1023.929384c-37.037997 0-74.075995-15.853251-101.757396-43.464037C294.916341 954.796497 282.452649 922.489759 282.452649 881.532584c0-21.78498 17.653955-39.403627 39.403627-39.403627 21.820288 0 39.438935 17.618647 39.438935 39.403627 0 19.772429 4.519412 32.659817 15.04117 43.216882 12.993311 12.993311 29.764568 20.44328 46.006206 20.443279 16.206331 0 32.94228-7.449969 46.006207-20.549203 12.075305-12.075305 17.653955-25.810082 17.653955-43.25219v-334.365905c0-21.749672 17.653955-39.333012 39.438935-39.333012s39.403627 17.583339 39.403627 39.368319v334.365906c0 38.591545-13.734777 71.851596-40.815944 98.897456-27.610785 27.716709-64.754707 43.605269-101.68678 43.605268zM812.071296 459.002827h-110.231295c0-54.091718-84.103441-122.271292-136.924074-136.394455L592.456097 211.847459c89.788015 24.009379 219.615199 125.908006 219.615199 247.155368z" p-id="42120"></path></svg>