<?xml version="1.0" standalone="no"?><!DOCTYPE svg PUBLIC "-//W3C//DTD SVG 1.1//EN" "http://www.w3.org/Graphics/SVG/1.1/DTD/svg11.dtd"><svg t="1776063807097" class="icon" viewBox="0 0 1024 1024" version="1.1" xmlns="http://www.w3.org/2000/svg" p-id="5084" xmlns:xlink="http://www.w3.org/1999/xlink" width="200" height="200"><path d="M906.24 175.018667c8.362667 3.498667 15.786667 8.917333 21.674667 15.829333l0.512 0.256a54.442667 54.442667 0 0 1 9.002666 43.264c-2.944 14.165333-8.106667 27.776-15.274666 40.362667a539.008 539.008 0 0 1-70.144 94.378666 2037.333333 2037.333333 0 0 1-265.856 241.024 2034.901333 2034.901333 0 0 1-301.056 197.632c-34.389333 18.688-70.784 33.493333-108.458667 44.245334-13.909333 3.84-28.373333 5.333333-42.794667 4.565333a54.101333 54.101333 0 0 1-39.509333-19.626667 45.653333 45.653333 0 0 1-8.917333-30.037333c0.512-8.789333 2.474667-17.493333 5.802666-25.642667 7.68-18.261333 17.493333-35.541333 29.269334-51.456a1032.405333 1032.405333 0 0 1 89.045333-106.325333 325.418667 325.418667 0 0 1-16.256-101.717333 322.304 322.304 0 0 1 494.08-274.261334 778.282667 778.282667 0 0 1 139.093333-66.304 184.96 184.96 0 0 1 53.290667-10.368c9.045333-0.725333 18.133333 0.725333 26.496 4.181334z m-96.426667 156.373333a483.029333 483.029333 0 0 0 62.549334-83.626667l-0.213334-0.256c3.584-6.272 6.485333-12.970667 8.533334-19.882666-12.373333 0.853333-24.490667 3.413333-36.138667 7.594666-37.546667 13.141333-73.898667 29.696-108.458667 49.408 11.050667 10.325333 21.333333 21.461333 30.848 33.28a2032.810667 2032.810667 0 0 1-239.829333 215.466667 2013.482667 2013.482667 0 0 1-269.824 179.626667 312.32 312.32 0 0 1-21.589333-33.450667c-24.234667 26.069333-46.933333 53.589333-67.84 82.432-8.618667 11.733333-16 24.32-22.058667 37.546667 6.272-0.426667 12.501333-1.493333 18.56-3.114667 33.450667-9.728 65.792-23.04 96.426667-39.637333a1982.549333 1982.549333 0 0 0 290.901333-191.232 1992.789333 1992.789333 0 0 0 258.133333-234.154667zM365.141333 807.04a2331.989333 2331.989333 0 0 0 243.626667-166.656l-0.426667-0.512a2334.549333 2334.549333 0 0 0 221.269334-192.810667A323.84 323.84 0 0 1 516.266667 844.8a319.488 319.488 0 0 1-151.125334-37.717333z" p-id="5085"></path></svg>