<svg viewBox="0 0 500 500" version="1.1" xmlns:xlink="http://www.w3.org/1999/xlink" id="svg_null">
  <defs>
    <circle id="25d57361-85ab-493c-983d-4ea2846588b2" cx="150" cy="150" r="150"></circle>
  </defs>
  <g id="root" stroke="none" stroke-width="1" fill="none" fill-rule="evenodd">
    <rect id="background" fill="#FFF" x="0" y="0" width="500" height="500"></rect>
    <g id="Group" transform="translate(40.000000, 386.000000)">
      <rect id="Rectangle" x="0" y="0" width="420" height="60"></rect><text id="headerText.secondary"
        font-family="Cousine" font-size="58" font-style="normal" font-weight="700" line-spacing="58" fill="#539ddb"
        data-text-alignment="C">
        <tspan x="156.86101913452148" y="45.5">ylw</tspan>
      </text>
    </g>
    <g id="Shape" transform="translate(100.000000, 55.000000)">
      <mask id="5dea94f9-3a99-4210-84e0-a21ed81bb0d4" fill="#fff">
        <use xlink:href="#25d57361-85ab-493c-983d-4ea2846588b2"></use>
      </mask>
      <use id="shape.primary" fill="#084a83" xlink:href="#25d57361-85ab-493c-983d-4ea2846588b2"></use>
      <path
        d="M215.708 127.072l-86.154 0c-1.286 -9.624 -9.537 -17.072 -19.498 -17.072c-10.85 0 -19.678 8.835 -19.678 19.695l0 88.331l-118.2 66.949c-2.062 1.169 -2.788 3.79 -1.62 5.854c0.79 1.397 2.243 2.181 3.739 2.18c0.716 0 1.442 -0.179 2.11 -0.557l17.977 -10.182c9.779 15.2 24.592 26.139 42.14 31.008c6.528 1.811 13.165 2.708 19.76 2.708c1.267 0 2.532 -0.042 3.794 -0.108l-3.868 20.53l-2.028 0c-2.37 0 -4.291 1.924 -4.291 4.296c0 2.372 1.921 4.295 4.291 4.295l5.58 0c0.01 0 17.62 0 52.834 0c2.37 0 4.292 -1.923 4.292 -4.295c0 -2.372 -1.922 -4.296 -4.292 -4.296l-47.652 0l4.062 -21.555c8.111 -1.444 16.007 -4.267 23.39 -8.448c11.175 -6.33 20.524 -15.485 27.037 -26.477c6.245 -10.541 9.79 -22.567 10.264 -34.808c0.016 -0.123 0.029 -19.056 0.037 -56.8c9.074 6.687 20.15 10.4 31.555 10.4c29.294 0 53.126 -23.853 53.126 -53.172c0 -2.372 -1.922 -4.295 -4.292 -4.295l-80.389 0l0 -5.59l85.974 0c2.37 0 4.292 -1.923 4.292 -4.295c0 -2.372 -1.921 -4.296 -4.292 -4.296z"
        fill="#FFF" fill-rule="nonzero" mask="url(#5dea94f9-3a99-4210-84e0-a21ed81bb0d4)"></path>
    </g>
  </g>
</svg>